<?xml version="1.0" encoding="UTF-8" standalone="no"?>
<!DOCTYPE svg PUBLIC "-//W3C//DTD SVG 1.1//EN" "http://www.w3.org/Graphics/SVG/1.1/DTD/svg11.dtd">
<svg width="100%" height="100%" viewBox="0 0 236 236" version="1.1" xmlns="http://www.w3.org/2000/svg" xmlns:xlink="http://www.w3.org/1999/xlink" xml:space="preserve" xmlns:serif="http://www.serif.com/" style="fill-rule:evenodd;clip-rule:evenodd;stroke-linejoin:round;stroke-miterlimit:2;">
    <g transform="matrix(1,0,0,1,-4322.43,-14612.5)">
        <g transform="matrix(1,0,0,0.520285,-23130.2,12156.7)">
            <g transform="matrix(1,0,0,1.92202,23469.7,-23388.2)">
                <path d="M3982.99,14741.9C3982.99,14677 4035.64,14624.4 4100.49,14624.4C4165.34,14624.4 4217.99,14677 4217.99,14741.9C4217.99,14806.7 4165.34,14859.4 4100.49,14859.4C4035.64,14859.4 3982.99,14806.7 3982.99,14741.9ZM4078.58,14647.7C4041.56,14656.3 4012.66,14686.2 4005.52,14723.7C4020.12,14718.5 4040.88,14714.5 4065,14712.5C4067.11,14686.2 4071.99,14663.5 4078.58,14647.7ZM4195.46,14723.7C4188.32,14686.2 4159.43,14656.3 4122.4,14647.7C4128.99,14663.5 4133.87,14686.2 4135.98,14712.5C4160.1,14714.5 4180.86,14718.5 4195.46,14723.7ZM4122.4,14836C4159.43,14827.4 4188.32,14797.5 4195.46,14760C4180.86,14765.2 4160.1,14769.2 4135.98,14771.2C4133.87,14797.5 4128.99,14820.2 4122.4,14836ZM4005.52,14760C4012.66,14797.5 4041.56,14827.4 4078.58,14836C4071.99,14820.2 4067.11,14797.5 4065,14771.2C4040.88,14769.2 4020.12,14765.2 4005.52,14760ZM4115.01,14711.3C4113.01,14688.5 4108.79,14668.9 4102.96,14655.2C4102.3,14653.6 4101.41,14652 4100.49,14650.4C4099.57,14652 4098.68,14653.6 4098.02,14655.2C4092.19,14668.9 4087.97,14688.5 4085.97,14711.3C4090.73,14711.1 4095.58,14711.1 4100.49,14711.1C4105.41,14711.1 4110.25,14711.1 4115.01,14711.3ZM4063.93,14733.5C4045.49,14735.1 4029.33,14738 4017.01,14741.9C4029.33,14745.7 4045.49,14748.6 4063.93,14750.2C4063.87,14747.5 4063.84,14744.7 4063.84,14741.9C4063.84,14739 4063.87,14736.2 4063.93,14733.5ZM4137.05,14750.2C4155.49,14748.6 4171.65,14745.7 4183.98,14741.9C4171.65,14738 4155.49,14735.1 4137.05,14733.5C4137.11,14736.2 4137.14,14739 4137.14,14741.9C4137.14,14744.7 4137.11,14747.5 4137.05,14750.2ZM4085.97,14772.4C4087.97,14795.2 4092.19,14814.8 4098.02,14828.5C4098.68,14830.1 4099.57,14831.7 4100.49,14833.3C4101.41,14831.7 4102.3,14830.1 4102.96,14828.5C4108.79,14814.8 4113.01,14795.2 4115.01,14772.4C4110.25,14772.6 4105.41,14772.6 4100.49,14772.6C4095.58,14772.6 4090.73,14772.6 4085.97,14772.4ZM4116.18,14732.2C4111.06,14732 4105.82,14731.9 4100.49,14731.9C4095.16,14731.9 4089.93,14732 4084.8,14732.2C4084.72,14735.4 4084.68,14738.6 4084.68,14741.9C4084.68,14745.1 4084.72,14748.3 4084.8,14751.5C4089.93,14751.7 4095.16,14751.8 4100.49,14751.8C4105.82,14751.8 4111.06,14751.7 4116.18,14751.5C4116.26,14748.3 4116.31,14745.1 4116.31,14741.9C4116.31,14738.6 4116.26,14735.4 4116.18,14732.2Z" style="fill:inherit;"/>
            </g>
        </g>
    </g>
</svg>
